<svg xmlns="http://www.w3.org/2000/svg" viewBox="0 0 560 560" role="img" aria-label="Valente Engenharia">
  <circle cx="280" cy="280" r="280" fill="#505050"/>
  <g fill="none" stroke="#ffffff" stroke-width="5" stroke-linejoin="miter">
    <rect x="234" y="38"  width="86" height="230"/>
    <rect x="196" y="124" width="44" height="162"/>
    <rect x="318" y="150" width="25" height="136"/>
    <rect x="256" y="196" width="34" height="72"/>
  </g>
  <g fill="#ffffff">
    <path d="M318 0 5.666666666666667 700H62.33333333333333L359.6666666666667 31H329.3333333333333L627.6666666666666 700H681L369 0Z" transform="translate(42.24 368) scale(0.08600 -0.08600)"/>
    <path d="M5 0 327 700H378L700.3333333333334 0H645L341.3333333333333 668.3333333333334H363.3333333333333L59.666666666666664 0ZM123 196.66666666666666 140 240H558.6666666666666L576 196.66666666666666Z" transform="translate(113.33 368) scale(0.08600 -0.08600)"/>
    <path d="M122 0V700H173.33333333333334V45.666666666666664H575.6666666666666V0Z" transform="translate(185.96 368) scale(0.08600 -0.08600)"/>
    <path d="M122 0V700H590V654.3333333333334H173.33333333333334V45.666666666666664H604.6666666666666V0ZM167 333V378H545.6666666666666V333Z" transform="translate(248.27 368) scale(0.08600 -0.08600)"/>
    <path d="M122 0V700H164.66666666666666L664.3333333333334 63.33333333333333H641V700H692.3333333333334V0H649.6666666666666L150 636.6666666666666H173.33333333333334V0Z" transform="translate(317.80 368) scale(0.08600 -0.08600)"/>
    <path d="M256 0V654.3333333333334H4V700H559.3333333333334V654.3333333333334H307.3333333333333V0Z" transform="translate(399.80 368) scale(0.08600 -0.08600)"/>
    <path d="M122 0V700H590V654.3333333333334H173.33333333333334V45.666666666666664H604.6666666666666V0ZM167 333V378H545.6666666666666V333Z" transform="translate(460.22 368) scale(0.08600 -0.08600)"/>
  </g>
  <g fill="#ffffff">
    <path d="M117.38055322715843 0V700H592.5196982397317V643.134674490081H181.8723107013132V56.865325509918975H607.0463816708577V0ZM174.97904442581728 327.5406538139145V383.4593461860855H548.4663313774797V327.5406538139145Z" transform="translate(109.00 419) scale(0.02700 -0.02700)"/>
    <path d="M117.38055322715843 0V700H170.82592903045543L660.2738195026544 80.27130483375245H631.7611064543169V700H696.2528639284717V0H642.8074881251746L153.35959765297568 619.7286951662476H181.8723107013132V0Z" transform="translate(144.06 419) scale(0.02700 -0.02700)"/>
    <path d="M421 -5.8398994132439235Q341.58005029337806 -5.8398994132439235 274.3967588711931 20.66010058675608Q207.2134674490081 47.16010058675608 157.50349259569714 95.39675887119307Q107.79351774238614 143.63341715563007 80.32020117351216 208.34339200894104Q52.84688460463817 273.053366862252 52.84688460463817 350Q52.84688460463817 426.946633137748 80.32020117351216 491.656607991059Q107.79351774238614 556.36658284437 157.7401508801341 604.603241128807Q207.68678401788208 652.8398994132439 274.870075440067 679.3398994132439Q342.053366862252 705.8398994132439 421.946633137748 705.8398994132439Q500.0463816708578 705.8398994132439 566.0962559374127 681.0Q632.1461302039676 656.1601005867561 679.0393964794636 606.4269348980162L638.6404023470243 564.974573903325Q593.4803017602683 609.081307627829 540.0034925956971 628.317965912266Q486.526683431126 647.554624196703 424.3132159821179 647.554624196703Q358.4129645152277 647.554624196703 302.30273819502656 625.1311818943839Q246.19251187482536 602.7077395920649 204.66233584800221 562.4142218496787Q163.1321598211791 522.1207041072926 140.47205923442303 468.0104777870914Q117.81195864766696 413.9002514668902 117.81195864766696 350Q117.81195864766696 286.5730651019838 140.47205923442303 232.46283878178264Q163.1321598211791 178.35261246158146 204.66233584800221 137.82243643475832Q246.19251187482536 97.29226040793517 302.06607991058956 74.8688181056161Q357.9396479463537 52.44537580329701 423.8398994132439 52.44537580329701Q484.1601005867561 52.44537580329701 538.6369097513272 71.02542609667505Q593.1137189158983 89.60547639005308 638.1670857781503 132.76557697680917L675.2528639284717 83.68678401788209Q626.4663313774797 39.16010058675608 559.9431405420509 16.66010058675608Q493.41994970662194 -5.8398994132439235 421 -5.8398994132439235ZM675.2528639284717 83.68678401788209 613.1810561609389 91.83989941324393V349.15311539536185H675.2528639284717Z" transform="translate(183.04 419) scale(0.02700 -0.02700)"/>
    <path d="M117.38055322715843 0V700H592.5196982397317V643.134674490081H181.8723107013132V56.865325509918975H607.0463816708577V0ZM174.97904442581728 327.5406538139145V383.4593461860855H548.4663313774797V327.5406538139145Z" transform="translate(220.91 419) scale(0.02700 -0.02700)"/>
    <path d="M117.38055322715843 0V700H170.82592903045543L660.2738195026544 80.27130483375245H631.7611064543169V700H696.2528639284717V0H642.8074881251746L153.35959765297568 619.7286951662476H181.8723107013132V0Z" transform="translate(255.97 419) scale(0.02700 -0.02700)"/>
    <path d="M631.7611064543169 0V700H696.2528639284717V0ZM117.38055322715843 0V700H181.8723107013132V0ZM174.50572785694328 327.0673372450405V383.9326627549595H638.6543727298128V327.0673372450405Z" transform="translate(294.95 419) scale(0.02700 -0.02700)"/>
    <path d="M3.320201173512154 0 324.0603520536463 700H388.07879295892707L709.2922604079351 0H640.3805532271584L342.3132159821179 661.7541212629226H369.35261246158143L71.28527521654092 0ZM125.93964794635373 190.64738753841854 145.87929589270746 244.1994970662196H557.6867840178821L578.0997485331098 190.64738753841854Z" transform="translate(333.93 419) scale(0.02700 -0.02700)"/>
    <path d="M117.38055322715843 0V700H374.73316568873986Q507.5196982397318 700 583.3595976529757 637.13341715563Q659.1994970662196 574.2668343112601 659.1994970662196 461.9536183291422Q659.1994970662196 388.0603520536463 625.0162056440347 334.9037440625873Q590.8329142218497 281.74713607152836 527.2029896619167 253.30050293378036Q463.5730651019838 224.8538697960324 374.73316568873986 224.8538697960324H152.99301480860575L181.8723107013132 254.67979882648785V0ZM598.2877898854429 0 417.6543727298128 254H489.03939647946356L670.1461302039676 0ZM181.8723107013132 250.05336686225203 152.99301480860575 280.7725621682034H373.89326627549593Q481.74713607152836 280.7725621682034 537.9907795473596 328.46283878178264Q594.2344230231909 376.15311539536185 594.2344230231909 461.9536183291422Q594.2344230231909 548.7541212629226 537.9907795473596 595.9443978765019Q481.74713607152836 643.134674490081 373.89326627549593 643.134674490081H152.99301480860575L181.8723107013132 674.3271863649064Z" transform="translate(370.18 419) scale(0.02700 -0.02700)"/>
    <path d="M117.38055322715843 0V700H181.8723107013132V0Z" transform="translate(406.68 419) scale(0.02700 -0.02700)"/>
    <path d="M3.320201173512154 0 324.0603520536463 700H388.07879295892707L709.2922604079351 0H640.3805532271584L342.3132159821179 661.7541212629226H369.35261246158143L71.28527521654092 0ZM125.93964794635373 190.64738753841854 145.87929589270746 244.1994970662196H557.6867840178821L578.0997485331098 190.64738753841854Z" transform="translate(431.75 419) scale(0.02700 -0.02700)"/>
  </g>
</svg>
